#tb 0: 1/25
0,          0,          0,        1,    91788, e14e576f1f9abd095f13ceca627adb59
0,          1,          1,        1,    92140, 4b7db11c2d35fa91ff1b6f65c184e3fa
0,          2,          2,        1,    93268, 6ef5cb83a4db2afbf14467cbc4b6c4f7
0,          3,          3,        1,    91612, f08ae129a2867a08770bdb61381bf366
0,          4,          4,        1,    90456, ed3edabe09b9f6cfbf452a08dafa556d
0,          5,          5,        1,    92180, a0760e91b3af27a7c1bb0264f128ca50
0,          6,          6,        1,    92200, 2fda4c87dfa34206173e852b67841406
0,          7,          7,        1,    91872, 944e7c88c7ebeae9e1efac859ea4fe7d
0,          8,          8,        1,    91952, 34112ec99382b80c397d26cef93573c7
0,          9,          9,        1,    92312, 63698686348ccd80cc920e9e73a195aa
0,         10,         10,        1,    92308, 6a675d6678b7b78fac6375d44f325d06
0,         11,         11,        1,    92272, bc1401e0acd3864ad30711ca4b61578d
0,         12,         12,        1,    90920, cd7ecda23a4f312abe71bd3fc28af3e7
0,         13,         13,        1,    91612, 91ebce52e2594296349476f3bf6a6408
0,         14,         14,        1,    93112, 34be111d02130ed7389c0c62768041de
0,         15,         15,        1,    93140, e1b440cad63dbf8ff034f424cd1194cc
0,         16,         16,        1,    92080, 94181fde8563af0b6810f778f6b1d92b
0,         17,         17,        1,    91816, ed0997f9b341fc3ab6a8c5d9a4067bd2
0,         18,         18,        1,    91204, d833b0c3b3dfe60b079b746c4c3aed7f
0,         19,         19,        1,    90880, 0d4702abb70d7cbc8843a96e3a74117a
0,         20,         20,        1,    90408, 409860b79fe10ffbffd581c19445fa91
0,         21,         21,        1,    90280, 5360fa4f1afd8c2c55cf33675a928a14
0,         22,         22,        1,    90808, fe2ca67d315fb1d8806ee04470d06378
0,         23,         23,        1,    91584, 84168a6fe20ee00ddd9f54ce8f1e1810
0,         24,         24,        1,    92684, 6fb3d7193d3bb5400c449717358827e0
0,         25,         25,        1,    91580, acd2aa86dbae6e133183e5bf2ca389a3
0,         26,         26,        1,    90928, cc0df9c8e00df5985e39ae486eb59eff
0,         27,         27,        1,    90536, 8f9d294190c03435f3cee266cca2a31a
0,         28,         28,        1,    88364, ae9564ad4eb3c1fc03e4befb4b1e719e
0,         29,         29,        1,    88404, 745a16947203cd7017900b137fca70eb
0,         30,         30,        1,    89844, 1b7e75be9edb25ffe91c54e270eb8f46
0,         31,         31,        1,    90752, 9ff03fa3b28f2c84a4da41779e0a2aa4
0,         32,         32,        1,    91320, 409ed4c3eced8793760505cf8095f51a
0,         33,         33,        1,    93204, 70865d89c930919474500befe0e2ec3f
0,         34,         34,        1,    92036, 7388d12a6954b9870749ab6a5f05815f
0,         35,         35,        1,    91144, b47bfdaec4c00177a9258a03e864400f
0,         36,         36,        1,    90368, 418df89a063f66cfbb1f806d68aca6a2
0,         37,         37,        1,    90628, 3f90314ab7311ad0f4bd4808d62a1e80
0,         38,         38,        1,    89836, 414f90d0efc65b993f6e1fc8f2c1d860
0,         39,         39,        1,    89792, a07cf9fc580ffee5d61c241dce116ae6
0,         40,         40,        1,    88896, 3d583229da6b7455b6876843b3b747c7
0,         41,         41,        1,    90572, cbef36619e7c8e62fc21a735c7701514
0,         42,         42,        1,    90544, 144816eaeaf0412fca6bf40e6f3e6d3f
0,         43,         43,        1,    90416, 76f0d9dd1f4fd00b68223dd7c6024b2e
0,         44,         44,        1,    89788, ce0b66e45ed3c50124680f84614c5ac0
0,         45,         45,        1,    88120, 5d59770b187109e2e6824f5cb42b9b73
0,         46,         46,        1,    87164, bb52ce20f4a21ef82a2cc3316ba69e1c
0,         47,         47,        1,    87632, 87f44c3ecebd09b2ffa94d8ace01f3f3
0,         48,         48,        1,    87700, cbaed2ac667bdc9aa17ffc68ebaea790
0,         49,         49,        1,    86624, 21797bc69a89976f9b4b552603a63267
